{"title":"The Christmas Heart 2012 DVDrip English Klam","uid":9136272,"size":1512247330,"categoryP":"video","categoryS":"movies","magnet":"?xt=urn:btih:a75bd2d2fb698b2dae1077ed30977a97cf207f97&amp;dn=The+Christmas+Heart+2012+DVDrip+English+Klam&amp;tr=udp%3A%2F%2Ftracker.openbittorrent.com%3A80&amp;tr=udp%3A%2F%2Fopen.demonii.com%3A1337&amp;tr=udp%3A%2F%2Ftracker.coppersurfer.tk%3A6969&amp;tr=udp%3A%2F%2Fexodus.desync.com%3A6969","seeders":2,"leechers":0,"uploader":"Klambake","files":-1,"time":1383418420,"description":"With: Teri Polo, Tess Harper and Paul Essiembre\n\nAls blijkt dat de tienerzoon van een koppel zal overlijden als hij geen harttransplantatie ondergaat, besluiten de leden van een wijk hun kersttraditie om de straten te verlichten te annuleren. Terwijl de dokter van de jongen alles doet om een donor te regelen, realiseren omstanders zich dat de kersttraditie wel eens gunstig kan blijken voor het lot van de jongen.\n\nWhen a teenage boy desperately needs a heart transplant on Christmas Eve, his family and neighbors' forty-year tradition of lining their quaint street with Christmas luminaries is put on ... \n &lt;a href=&quot;\nhttp://www.imdb.com/title/tt2415468&quot; rel=&quot;nofollow&quot; target=&quot;_NEW&quot;&gt;\nhttp://www.imdb.com/title/tt2415468&lt;/a&gt;\t\n\n------------------------ Dutch Friends ------------------------\n---------------------------------------------------------------\n- Bezoek ook eens mijn vrienden op: &lt;a href=&quot; http://www.Film-Test.nl&quot; rel=&quot;nofollow&quot; target=&quot;_NEW&quot;&gt; http://www.Film-Test.nl&lt;/a&gt; --\n----- voor mijn Nederlandse Sync. ondertitels ---- en meer ----\n------- http://www.Film-Test.nl ---- Over Films en meer -------\n---------------------------------------------------------------\n\nGeneral:\n\nComplete name                    : The Christmas HeartThe Christmas Heart.avi\nFormat                           : AVI\nFormat/Info                      : Audio Video Interleave\nFile size                        : 1.41 GiB\nDuration                         : 1h 23mn\nOverall bit rate                 : 2 424 Kbps\n\nVideo:\n\nFormat                           : MPEG-4 Visual\nFormat profile                   : Simple@L3\nFormat settings, BVOP            : No\nFormat settings, QPel            : No\nFormat settings, GMC             : No warppoints\nFormat settings, Matrix          : Default (H.263)\nCodec ID                         : XVID\nCodec ID/Hint                    : XviD\nDuration                         : 1h 23mn\nBit rate                         : 1 966 Kbps\nWidth                            : 704 pixels\nHeight                           : 396 pixels\nDisplay aspect ratio             : 16:9\nFrame rate                       : 25.000 fps\nColor space                      : YUV\nChroma subsampling               : 4:2:0\nBit depth                        : 8 bits\nScan type                        : Progressive\nCompression mode                 : Lossy\nBits/(Pixel*Frame)               : 0.282\nStream size                      : 1.14 GiB (81%)\nWriting library                  : XviD 1.1.2 (UTC 2006-11-01)\n\nAudio:\n\nFormat                           : AC-3\nFormat/Info                      : Audio Coding 3\nMode extension                   : CM (complete main)\nCodec ID                         : 2000\nDuration                         : 1h 23mn\nBit rate mode                    : Constant\nBit rate                         : 448 Kbps\nChannel(s)                       : 6 channels\nChannel positions                : Front: L C R, Side: L R, LFE\nSampling rate                    : 48.0 KHz\nBit depth                        : 16 bits\nCompression mode                 : Lossy\nStream size                      : 266 MiB (18%)\nAlignment                        : Aligned on interleaves\nInterleave, duration             : 32 ms (0.80 video frame)","torrent":{"xt":"urn:btih:a75bd2d2fb698b2dae1077ed30977a97cf207f97","amp;dn":"The+Christmas+Heart+2012+DVDrip+English+Klam","amp;tr":["udp%3A%2F%2Ftracker.openbittorrent.com%3A80","udp%3A%2F%2Fopen.demonii.com%3A1337","udp%3A%2F%2Ftracker.coppersurfer.tk%3A6969","udp%3A%2F%2Fexodus.desync.com%3A6969"],"infoHash":"a75bd2d2fb698b2dae1077ed30977a97cf207f97","infoHashBuffer":{"type":"Buffer","data":[167,91,210,210,251,105,139,45,174,16,119,237,48,151,122,151,207,32,127,151]},"announce":[],"urlList":[]}}